<?xml version="1.0" encoding="UTF-8"?>
<svg width="63px" height="18px" viewBox="0 0 63 18" version="1.1" xmlns="http://www.w3.org/2000/svg" xmlns:xlink="http://www.w3.org/1999/xlink">
    <title>C4F13CE9-433B-4185-AE0F-46B7A2B82B68</title>
    <defs>
        <path d="M7.44809272,1 C3.06290595,1 0,3.95559934 0,7.87412932 L0,15.6241398 L2.54447178,15.6241398 C2.54447178,15.6241398 2.54238658,11.3603656 2.54238658,7.8684824 C2.54238658,4.22352411 5.30702128,1.62385465 8.08156072,1.05959675 C8.19450934,1.03587968 8.32683299,1 8.19511752,1 L7.44809272,1" id="path-1"></path>
    </defs>
    <g id="Page-1" stroke="none" stroke-width="1" fill="none" fill-rule="evenodd">
        <g id="Smart-Stack-Small-&amp;-Medium" transform="translate(-38.000000, -216.000000)">
            <g id="Small" transform="translate(27.000000, 206.000000)">
                <g id="Logo" transform="translate(11.917141, 10.605121)">
                    <mask id="mask-2" fill="white">
                        <use xlink:href="#path-1"></use>
                    </mask>
                    <use id="Left-Side" fill="#EE2527" xlink:href="#path-1"></use>
                    <path d="M7.93611765,1.33907599 C7.60778469,1.44923442 7.28249267,1.58510807 6.81419031,1.87735804 C4.85957098,3.09179392 3.98343721,5.32493466 3.89490287,7.48622917 C3.88925544,7.60924521 3.88769154,7.73147937 3.88769154,7.85371352 L3.88769154,7.85319227 C3.88769154,7.86500737 3.88569321,7.92747102 3.88569321,7.94779994 L3.88569321,15.6243135 L6.42851421,15.6243135 L6.42851421,7.94779994 C6.42851421,7.4632071 6.64798207,7.03047907 6.99264913,6.74344164 L7.99598042,7.94779994 L8.99766092,6.74370227 C9.34232798,7.03047907 9.56231714,7.4632071 9.56231714,7.94779994 L9.56231714,15.6243135 L12.1047037,15.6243135 L12.1047037,7.94779994 C12.1047037,5.67825827 10.2645969,3.83840398 7.99598042,3.83840398 C7.45869252,3.83840398 6.94590578,3.9410911 6.47673458,4.12882956 L6.47673458,4.1283083 C6.99751461,3.51679001 7.78415831,3.21385433 8.64413173,3.19526292 L8.64621694,3.19526292 C8.91468712,3.18874724 9.19036864,3.21124806 9.466919,3.26024597 C11.7170293,3.62877283 13.4311549,5.51449751 13.4399302,7.7889911 C13.4443612,7.87560621 13.4459251,7.9633507 13.4459251,8.0524852 L13.4459251,15.6243135 L15.9897887,15.6243135 C15.9897887,15.6243135 15.9897887,8.0460564 15.9897887,7.98854466 C15.9897887,4.6814461 14.0022405,2.02982495 10.6146508,1.24029828 C10.4911023,1.21223742 10.295093,1.17279583 10.1196751,1.14925251 C9.86927674,1.11606598 9.61236207,1.08817887 9.34693281,1.08817887 C8.79652549,1.08817887 8.39677425,1.18565344 7.93611765,1.33907599 L7.93611765,1.33907599 Z" id="Right-Side" fill="#0E5AA7"></path>
                    <path d="M39.237766,2.41750761 L39.2579087,2.41750761 C39.2579087,2.41750761 39.4563996,2.41913796 39.6572555,2.2571811 C39.7406804,2.15769099 39.8030656,2.03618257 39.8030656,1.89640712 C39.8030656,1.77726363 39.7406804,1.65616296 39.6351556,1.5557758 C39.5115269,1.4548178 39.3852071,1.39487909 39.237766,1.39487909 C39.1118539,1.39487909 38.9862681,1.4548178 38.8831898,1.5557758 C38.7779097,1.65616296 38.7143828,1.77726363 38.7143828,1.89640712 C38.7143828,2.05673299 38.7779097,2.17661042 38.8831898,2.27781307 C38.9862681,2.37779248 39.1118539,2.41750761 39.237766,2.41750761 L39.237766,2.41750761 Z M47.0764452,6.73097422 L61.0828591,6.73097422 L47.0764452,6.73097422 Z M23.8668697,4.54496441 L23.8038321,4.22374182 C23.5108256,4.76522899 23.0505615,5.10586031 22.5066279,5.24596196 L22.5066279,5.34708306 C22.7787578,5.36649179 22.9870346,5.48710316 23.1546184,5.66879494 C23.3223652,5.86777517 23.4061163,6.0886106 23.4061163,6.37028179 C23.4061163,6.7504645 23.2809382,7.03189104 23.0289509,7.29317491 C22.7787578,7.53341907 22.46463,7.65403044 22.1086674,7.65403044 C21.7111962,7.65403044 21.354989,7.53341907 21.0828591,7.31331758 C21.167915,7.55331709 21.354989,7.79453984 21.6687906,7.99417246 C21.9832446,8.19576227 22.3177597,8.29598632 22.6742116,8.29598632 C23.1334971,8.29598632 23.5529866,8.11502849 23.9289287,7.75400985 C24.2842389,7.35246123 24.4932497,6.87148362 24.4932497,6.27022083 C24.4932497,5.94907979 24.3891928,5.58659327 24.1794481,5.18602324 L23.8668697,4.54496441 Z M45.1680292,4.54496441 L45.1064595,4.22374182 C44.8125559,4.76522899 44.3728422,5.10586031 43.8087659,5.24596196 L43.8087659,5.34708306 C44.0811404,5.36649179 44.2886833,5.48710316 44.4567564,5.66879494 C44.6037082,5.86777517 44.7072758,6.0886106 44.7072758,6.37028179 C44.7072758,6.7504645 44.5613026,7.03189104 44.3306812,7.29317491 C44.0811404,7.53341907 43.765871,7.65403044 43.4108054,7.65403044 C42.9920499,7.65403044 42.6575348,7.53341907 42.3646913,7.31331758 C42.4686667,7.55331709 42.6784114,7.79453984 42.9709286,7.99417246 C43.3058515,8.19576227 43.6198978,8.29598632 43.9748817,8.29598632 C44.4567564,8.29598632 44.8542276,8.11502849 45.2095377,7.75400985 C45.6074166,7.35246123 45.7963663,6.87148362 45.7963663,6.27022083 C45.7963663,5.92844783 45.6909231,5.56759229 45.5039306,5.18602324 L45.1680292,4.54496441 Z M41.7490759,2.53795525 C40.9526657,2.53795525 40.2639821,2.71899463 39.6574186,3.07993172 C39.0290814,3.46182696 38.7143012,3.90219304 38.7143012,4.36465897 C38.7143012,4.68498451 38.8613346,4.94651303 39.091222,5.145901 C39.3007221,5.3259618 39.5939732,5.42757219 39.9069594,5.42757219 L40.702391,5.42757219 L40.702391,5.7685297 L28.4707339,5.7685297 L28.4707339,5.70834634 C28.3436802,4.82524926 28.0926715,4.20310986 27.7172187,3.84233587 C27.3822958,3.90219304 27.0263332,4.00290639 26.6909211,4.16331381 C26.3776088,4.30398631 26.1676194,4.46365978 26.0226248,4.62529044 C25.8538178,4.84531038 25.7087416,5.145901 25.624175,5.50773513 L25.5407501,6.10867172 L25.5615452,6.73178972 L27.4026831,6.73178972 C27.3602775,7.01101443 27.214712,7.2322576 27.0054566,7.39242038 C26.7954672,7.55405104 26.5665584,7.63364313 26.2730626,7.63364313 C26.0226248,7.63364313 25.7497609,7.55405104 25.5407501,7.3726039 C25.33125,7.21244113 25.1638294,6.99185035 25.0801598,6.73178972 L24.9114344,6.73178972 C24.9968165,7.2322576 25.2276825,7.61398975 25.5821771,7.87429503 C25.9171,8.13468186 26.2730626,8.25545633 26.7329189,8.25545633 C27.1095135,8.25545633 27.4657207,8.13468186 27.8002358,7.91466192 C28.1142005,7.67360227 28.3246792,7.3726039 28.4280837,6.99185035 L28.4707339,6.73178972 L41.7284439,6.73178972 L41.7490759,2.53795525 Z M40.0755217,4.46365978 C39.8240237,4.46365978 39.6979486,4.36465897 39.6979486,4.14341579 C39.6979486,3.84233587 40.0110162,3.62150044 40.6192107,3.50113371 L40.640332,4.46365978 L40.0755217,4.46365978 Z M26.5444586,5.7685297 C26.6485154,5.22655323 26.9000134,4.9666557 27.2768526,4.9052491 C27.3822958,5.10643115 27.4238044,5.30630842 27.4657207,5.54696033 L27.4859449,5.7685297 L26.5444586,5.7685297 Z M57.1496561,3.96262105 L57.1496561,3.80245828 L59.3887545,2.29648785 L59.2413134,1.99630498 L56.207762,3.30093025 L56.207762,4.94618683 L60.0793953,4.94618683 L60.0793953,5.76844815 L48.0602557,5.76844815 L48.0602557,2.95932034 L48.1427835,1.99630498 L48.0190733,1.99630498 C47.6618875,2.35756826 47.2027651,2.55875031 46.6370578,2.57889298 L46.6370578,2.69877041 C46.9299828,2.73881111 47.0764452,2.8794836 47.0764452,3.16025775 L47.0764452,6.73097422 L61.0828591,6.73097422 L61.0828591,3.96262105 L57.1496561,3.96262105 Z M29.9002927,14.7016002 C29.7040851,14.9343418 29.3933009,15.0955647 29.0896114,15.0941872 C28.6211108,15.090998 28.3225589,14.8070434 28.3201124,14.3857598 C28.3225589,13.9383805 28.6616408,13.7133861 29.1639028,13.7080854 C29.405044,13.7080854 29.5943198,13.7601138 29.7186825,13.8334266 C29.8419034,13.9072287 29.9002927,13.9997871 29.9002927,14.0833751 L29.9002927,14.7016002 Z M31.0246941,14.7485726 L31.0246941,13.1593403 C31.0246941,12.5475577 31.012951,12.1159174 30.7685478,11.8192411 C30.5001692,11.4888035 29.9983965,11.3089058 29.1970118,11.3089058 C28.1866978,11.3089058 27.4317962,11.7085788 27.4238859,12.3038069 C27.4258431,12.6269051 27.6762809,12.8837038 28.0081865,12.8841931 C28.1922432,12.8841931 28.3453112,12.8174042 28.4492865,12.7059264 C28.5518755,12.5951825 28.6065135,12.4440716 28.6065135,12.2803207 C28.6065135,12.2105961 28.595749,12.1370386 28.5768295,12.0677218 C28.7742603,12.0028085 29.0148307,11.9759788 29.1238621,11.9759788 C29.6978874,11.9826659 29.8929533,12.260912 29.9002927,12.7509416 L29.9002927,13.2379538 C29.6578467,13.1365881 29.3071848,13.0783619 28.965738,13.0773833 C28.4215597,13.0773833 27.9525699,13.201909 27.6158529,13.4398698 C27.2793806,13.6766889 27.0793402,14.0275139 27.0797474,14.4610298 C27.0819498,15.2829649 27.7896344,15.8832491 28.7196223,15.884717 C29.3467362,15.884717 29.8315467,15.5609664 30.0452873,15.3884082 C30.2034929,15.7143606 30.5318103,15.8749311 30.8735017,15.8734632 C30.9027779,15.8734632 30.9324619,15.8720769 30.9628797,15.8695489 C31.3103612,15.844187 31.6329701,15.6699978 31.656864,15.2496928 L31.6588212,15.20533 L31.6127459,15.1997847 C31.2120943,15.1404168 31.0302394,15.0574812 31.0246941,14.7485726 L31.0246941,14.7485726 Z M25.7943683,13.3628058 C25.6031353,13.3628058 25.4234007,13.4258433 25.2916171,13.5432743 C25.1602412,13.6623362 25.0783657,13.836607 25.0787735,14.0481458 C25.0783657,14.2997254 25.2130036,14.4540981 25.314614,14.5619063 C25.1315359,14.8694286 24.7666029,15.1174199 24.1960026,15.1188878 C23.7099689,15.1174199 23.2925182,14.8792145 22.9898888,14.4564631 C22.6874226,14.0346902 22.5063017,13.4282083 22.5063017,12.7102485 C22.5063017,11.9913916 22.6800016,11.3819739 22.9748022,10.9583254 C23.2692767,10.5336984 23.6776754,10.2937804 24.1633829,10.2928834 C24.7342278,10.2937804 25.0989161,10.5453599 25.2829729,10.8519036 C25.1818518,10.9606904 25.0447674,11.1162048 25.0462353,11.3682736 C25.045746,11.5803833 25.1286816,11.7526969 25.2589974,11.8707803 C25.3912703,11.990413 25.5702709,12.0519827 25.7619933,12.0519827 C26.1497601,12.0514934 26.4370582,11.7157551 26.4375475,11.283707 C26.4323283,10.4744121 25.4430541,9.5377371 24.0421191,9.53537217 C23.2618557,9.53537217 22.5204097,9.85879659 21.9759867,10.4186324 C21.4312376,10.9782235 21.0828591,11.7747152 21.0828591,12.7191373 C21.0828591,13.7049865 21.4398818,14.4965038 21.9930305,15.0392957 C22.5458531,15.5820877 23.2961879,15.8768067 24.0744942,15.8768067 C25.4746952,15.8751758 26.4638879,14.942986 26.4694332,14.1274933 C26.4686993,13.6966685 26.1818905,13.3628058 25.7943683,13.3628058 L25.7943683,13.3628058 Z M38.5538938,11.3752869 C38.1631097,11.3762655 37.7643338,11.6315147 37.5134066,12.0189553 C37.4240286,11.687539 37.2157518,11.4294356 36.8331226,11.4304142 C36.7355897,11.4304142 36.63349,11.4464794 36.5222568,11.4783652 C36.2406671,11.5617085 35.824195,11.7486194 35.8165294,12.1116768 C35.8165294,12.1737358 35.8302296,12.2401985 35.8599136,12.3093522 L35.8754895,12.3455601 L35.9164272,12.339607 C35.9969979,12.3245204 36.0669672,12.3173441 36.1282922,12.3173441 C36.394306,12.3245204 36.4685974,12.4318393 36.4796065,12.7378937 L36.4796065,14.5598675 C36.4772416,14.9209677 36.4310031,15.0494078 36.3156925,15.142374 C36.2040515,15.2245757 36.0808306,15.2609466 36.0034403,15.2756255 L35.9785678,15.279703 L35.9677217,15.3019659 C35.9332264,15.372506 35.9160195,15.4374193 35.913573,15.4987443 C35.913573,15.6530355 36.0400559,15.7570109 36.2371605,15.80855 C36.4362223,15.863922 36.7233573,15.8847986 37.1033769,15.8847986 C37.4748338,15.8847986 37.7506335,15.8653899 37.9371367,15.8121382 C38.1235583,15.7623116 38.239766,15.6616798 38.238135,15.5133416 C38.238135,15.4478576 38.2177477,15.3782145 38.1815398,15.3019659 L38.170286,15.279703 L38.1458213,15.2756255 C38.0638642,15.2609466 37.8378912,15.2214768 37.732448,15.141477 C37.6193391,15.0491632 37.5647011,14.9200707 37.5627439,14.5598675 L37.5627439,13.4615619 C37.566169,12.5636229 37.8759747,12.3041331 38.094119,12.2367734 C38.1469629,12.499199 38.3943019,12.678852 38.6763808,12.6774657 C39.0634137,12.6765686 39.2917516,12.3518394 39.2932195,12.0419522 C39.2917516,11.604685 38.9174405,11.3752869 38.5538938,11.3752869 L38.5538938,11.3752869 Z M46.8190757,11.4925547 L45.6632779,11.4925547 L45.6632779,10.8037896 C45.6632779,10.5570215 45.6946744,10.3388772 45.7883745,10.1906206 C45.8835425,10.0422009 46.0304127,9.95355685 46.3021349,9.95143657 C46.4697187,9.95045797 46.6443972,9.99645176 46.7361401,10.0726188 C46.6769354,10.1589795 46.6374655,10.2756765 46.6369762,10.3896824 C46.6381179,10.7005482 46.9216647,10.9449514 47.2276376,10.946827 C47.6388906,10.9463377 47.8346088,10.6121488 47.8346088,10.3414867 C47.830776,9.71877649 47.0991975,9.33125434 46.2276804,9.33076238 C45.5341038,9.32978646 45.0785696,9.59767582 44.8171226,9.98715515 C44.6467662,10.2315583 44.521425,10.5955943 44.521425,11.2364085 L44.521425,11.5014436 L44.2267059,11.5014436 C43.9923333,11.5014436 43.8025681,11.6574474 43.8020788,11.8893735 C43.8020788,11.9615446 43.8195304,12.035836 43.8537811,12.1153465 L43.8652795,12.1436441 L44.5383872,12.1652547 L44.5383872,14.5599491 C44.5365116,14.9210493 44.4910071,15.0494894 44.3754518,15.1422109 C44.2630769,15.2246572 44.1396928,15.2612728 44.062955,15.2754624 L44.0371038,15.2797845 L44.0256054,15.3018028 C43.9923333,15.3720167 43.9748002,15.4370115 43.9748002,15.4978473 C43.9733323,15.6536064 44.1016093,15.7561954 44.299774,15.8083869 C44.5003853,15.8640035 44.788825,15.8853694 45.1694155,15.8853694 C45.558324,15.8853694 45.8629105,15.8640035 46.0766512,15.8057773 C46.2870483,15.7511393 46.4282101,15.647164 46.4282101,15.48325 C46.4282101,15.4261655 46.4114109,15.3664714 46.3798514,15.3022921 L46.3694946,15.2792952 L46.3447852,15.2754624 C46.2607079,15.2612728 45.9747961,15.2191934 45.873675,15.1418032 C45.7586905,15.0480215 45.6966315,14.9186028 45.6966315,14.5599491 L45.6966315,12.1841741 C45.8375487,12.1869468 46.0280478,12.2006471 46.2201779,12.2006471 C46.3021349,12.2006471 46.3934701,12.2006471 46.4795046,12.1913505 C46.7043359,12.1714524 46.8834997,11.9921256 46.8830104,11.7530231 C46.8830104,11.6789764 46.8660481,11.6022385 46.8313081,11.5222387 L46.8190757,11.4925547 Z M42.3185345,12.9445395 C42.3001043,12.9713692 42.2761288,12.9910226 42.1857722,12.9929798 L40.5102609,12.9929798 C40.5516879,12.4865588 40.8169677,11.9850308 41.4728685,11.9850308 C41.9931529,11.9850308 42.3312561,12.3692094 42.3396557,12.7854369 C42.3411236,12.8566294 42.3355783,12.9137955 42.3185345,12.9445395 L42.3185345,12.9445395 Z M43.3528239,13.6050071 C43.4570439,13.4261695 43.5064627,13.2143861 43.5064627,12.9864559 C43.5064627,12.6023588 43.3595109,12.1851527 43.0510916,11.8635224 C42.7426722,11.5414027 42.272296,11.3155113 41.6367825,11.3168912 C40.9398624,11.3155113 40.3501797,11.5622794 39.9385189,11.9816873 C39.5255534,12.4017476 39.2906915,12.9920012 39.2906915,13.6761181 C39.293138,14.9265946 40.3142164,15.8829229 41.5704014,15.8846355 C42.8070962,15.8839015 43.3650563,15.3018028 43.3669319,14.8465132 C43.3693784,14.6497348 43.281876,14.5481244 43.1989404,14.4916923 L43.1603676,14.4633132 L43.1297051,14.5004997 C42.9856891,14.6775431 42.55201,14.9738116 41.9890754,14.9728331 C41.0740926,14.9698973 40.5473658,14.4181349 40.5001488,13.6282486 L43.3379819,13.6282486 L43.3528239,13.6050071 Z M57.2160372,15.0706922 L57.1789323,15.0755036 C57.1388916,15.0790918 57.1021944,15.0805596 57.0672098,15.0805596 C56.740605,15.0755036 56.6220323,14.9233326 56.6128172,14.5852294 C56.6128172,14.505148 56.6220323,14.2422331 56.6220323,13.7462504 C56.6220323,12.5734088 56.637282,12.2927977 56.637282,12.135163 C56.637282,11.9171002 56.5922668,11.7299447 56.4763038,11.5933496 C56.3600145,11.4567546 56.177915,11.3809953 55.9300867,11.3809953 C55.833777,11.3809953 55.7333899,11.3970605 55.6269681,11.4128811 C55.3223815,11.4737168 54.8065008,11.6823199 54.7964703,12.0716361 C54.7964703,12.1272527 54.8079687,12.1858866 54.8333306,12.2454176 L54.8479279,12.2786897 L54.8860929,12.2755908 C54.9324945,12.2707794 54.9782436,12.2670282 55.0202415,12.2670282 C55.3365711,12.2755908 55.4443793,12.3864979 55.4532681,12.7143259 L55.4532681,13.8277182 C55.4532681,14.1150163 55.4024629,14.4129157 55.263503,14.6353006 C55.1238091,14.8565438 54.9051755,15.0043111 54.5450539,15.005779 C54.2131483,15.0024354 54.0319458,14.8881034 53.9128839,14.6456574 C53.7956976,14.4011727 53.7578587,14.0208268 53.7578587,13.5133457 L53.766503,12.1361416 C53.766503,11.9171002 53.7196937,11.7299447 53.6058509,11.5933496 C53.4908664,11.4567546 53.3082776,11.3809953 53.0611833,11.3809953 C52.9641397,11.3809953 52.8642418,11.3970605 52.75782,11.4128811 C52.4547014,11.4737168 51.9382498,11.6823199 51.9284639,12.0716361 C51.9284639,12.1272527 51.940207,12.1858866 51.9645902,12.2454176 L51.9792691,12.2786897 L52.0168633,12.2755908 C52.0647327,12.2707794 52.1095848,12.2670282 52.1515012,12.2670282 C52.4673415,12.2760801 52.5747419,12.3864979 52.5850171,12.7143259 L52.5850171,13.5192988 C52.5850171,14.3566467 52.5810212,14.9458402 52.9890122,15.4103449 C53.2541289,15.7091414 53.6703564,15.8895284 54.1589996,15.8895284 C54.6078468,15.8895284 55.0055626,15.7237388 55.3097414,15.4512011 C55.3912091,15.3767466 55.4458471,15.3225163 55.4918409,15.2732606 C55.5318816,15.4347281 55.5762444,15.5761346 55.6595878,15.686063 C55.7578547,15.8174389 55.9138584,15.8955631 56.1453768,15.8955631 L56.1529609,15.8955631 C56.2371197,15.8955631 56.3322877,15.8799872 56.4365077,15.8646559 C56.7353042,15.807653 57.2541207,15.6554005 57.267821,15.2751362 C57.267821,15.2209059 57.25461,15.1653709 57.2307161,15.1049429 L57.2160372,15.0706922 Z M34.7440749,11.3752869 C34.3532092,11.3762655 33.9545148,11.6315147 33.7035877,12.018466 C33.6127418,11.687539 33.4064221,11.4294356 33.0227328,11.4304142 C32.9271571,11.4304142 32.823671,11.4464794 32.7129271,11.4783652 C32.4306035,11.5617085 32.0138868,11.7486194 32.0071997,12.1116768 C32.0071997,12.1737358 32.0204107,12.2401985 32.0496053,12.3093522 L32.0642027,12.3455601 L32.1066898,12.339607 C32.1866897,12.3245204 32.2571482,12.3173441 32.3174947,12.3173441 C32.584487,12.3245204 32.6592677,12.4318393 32.668809,12.7378937 L32.668809,14.5598675 C32.6679119,14.9209677 32.6215919,15.0494078 32.5073414,15.142374 C32.394151,15.2245757 32.2698699,15.2609466 32.1936214,15.2756255 L32.168178,15.279703 L32.1574135,15.3019659 C32.1229181,15.372506 32.1047327,15.4374193 32.1042434,15.4987443 C32.1037541,15.6530355 32.2300739,15.7570109 32.4267707,15.80855 C32.6268926,15.863922 32.9125597,15.8847986 33.2930687,15.8847986 C33.6655042,15.8847986 33.9403252,15.8653899 34.1272362,15.8121382 C34.3141471,15.7623116 34.4304364,15.6616798 34.4287238,15.5133416 C34.4287238,15.4478576 34.4078472,15.3782145 34.3707423,15.3019659 L34.3608748,15.279703 L34.3364101,15.2756255 C34.2540453,15.2609466 34.0285616,15.2214768 33.922629,15.141477 C33.8090309,15.0491632 33.7539036,14.9200707 33.752925,14.5598675 L33.752925,13.4615619 C33.7567578,12.5636229 34.0656665,12.3041331 34.2834846,12.2367734 C34.3377148,12.499199 34.5849722,12.678852 34.8675405,12.6774657 C35.2521268,12.6765686 35.4828297,12.3518394 35.4834006,12.0419522 C35.4819327,11.604685 35.1081108,11.3752869 34.7440749,11.3752869 L34.7440749,11.3752869 Z M60.3441042,11.367295 C59.9517707,11.3682736 59.5544626,11.627111 59.3045141,12.018466 C59.2180719,11.6822383 59.0102843,11.4214438 58.6285522,11.4225039 C58.5271864,11.4225039 58.427941,11.4384876 58.3129565,11.4703733 C58.0337318,11.5537982 57.6172596,11.7421771 57.6100018,12.1058868 C57.6100018,12.1677827 57.622805,12.2322066 57.6515103,12.301442 L57.6675755,12.3376498 L57.7076162,12.3316967 C57.7885947,12.3165286 57.8590532,12.3093522 57.9208676,12.3093522 C58.186392,12.3165286 58.2606834,12.4234397 58.2688383,12.7299018 L58.2688383,14.5518757 C58.2688383,14.9130574 58.2230892,15.0414975 58.1054136,15.1332405 C57.9989918,15.2168285 57.8700624,15.2528733 57.7960156,15.2674706 L57.7711431,15.2712218 L57.7607864,15.293811 C57.7276774,15.3645142 57.7076162,15.429509 57.7076162,15.490834 C57.7066376,15.6470824 57.8345885,15.7491821 58.0313668,15.8003951 C58.2302655,15.8559301 58.5178083,15.8768067 58.8976648,15.8768067 C59.2692848,15.8768067 59.5427195,15.8574796 59.7286519,15.8038201 C59.9141765,15.7553799 60.0301395,15.6540141 60.0287532,15.5070623 C60.0287532,15.4411705 60.0069795,15.3716906 59.9702008,15.293811 L59.9595179,15.2712218 L59.9350531,15.2674706 C59.8564396,15.2528733 59.6304665,15.213485 59.5197226,15.1332405 C59.4142794,15.0414975 59.3611093,14.9120788 59.3601307,14.5518757 L59.3601307,13.4531624 C59.3630665,12.5552233 59.6671637,12.2962228 59.8837586,12.2288631 C59.9391305,12.4912887 60.1883451,12.6710233 60.472055,12.6698 C60.8535425,12.6685768 61.0824514,12.3438476 61.0828591,12.0340419 C61.0814728,11.5966932 60.7126254,11.367295 60.3441042,11.367295 L60.3441042,11.367295 Z M49.3967667,15.2180517 C48.861885,15.2166654 48.3190931,14.7016817 48.3152603,13.5051908 C48.3200717,12.5738981 48.7135469,12.026784 49.3483264,12.025887 C49.6618019,12.025887 49.933524,12.1770793 50.1326674,12.4634804 C50.3323,12.7486582 50.4528298,13.1692078 50.4528298,13.6949559 C50.4494863,14.7026603 50.0073261,15.2175624 49.3967667,15.2180517 L49.3967667,15.2180517 Z M49.3893457,11.3577538 C48.1335685,11.3592217 47.0209917,12.2786897 47.0186268,13.6299612 C47.0186268,14.3127732 47.2800738,14.8857384 47.7027437,15.2873686 C48.1254951,15.6898958 48.7089801,15.9188046 49.3483264,15.9188046 L49.3497943,15.9188046 C50.0238806,15.9188046 50.6184564,15.686063 51.0447144,15.2820679 C51.4703201,14.8789698 51.725814,14.3051076 51.725814,13.6299612 C51.725814,12.9578321 51.4811661,12.3874765 51.0658357,11.9873142 C50.6509945,11.5871519 50.0644106,11.3577538 49.3893457,11.3577538 L49.3893457,11.3577538 Z" id="Fill-1" fill="#1E5191"></path>
                </g>
            </g>
        </g>
    </g>
</svg>